<mxfile host="app.diagrams.net" modified="2024-01-24T02:24:32.042Z" agent="Mozilla/5.0 (Windows NT 10.0; Win64; x64) AppleWebKit/537.36 (KHTML, like Gecko) Chrome/120.0.0.0 Safari/537.36 Edg/120.0.0.0" etag="43o7dBCB-MFEp9mK1EK6" version="22.1.20" type="github">
  <diagram name="Страница — 1" id="czUcI-qYhw4pRouQP_-Z">
    <mxGraphModel dx="4000" dy="1808" grid="1" gridSize="10" guides="1" tooltips="1" connect="1" arrows="1" fold="1" page="1" pageScale="1" pageWidth="827" pageHeight="1169" math="0" shadow="0">
      <root>
        <mxCell id="0" />
        <mxCell id="1" parent="0" />
        <mxCell id="3foTuXjZa9yjILKBP0uG-3" value="&lt;b style=&quot;border-color: var(--border-color); font-family: &amp;quot;Times New Roman&amp;quot;; font-size: 21px;&quot;&gt;Закупка материалов&lt;/b&gt;" style="ellipse;whiteSpace=wrap;html=1;" parent="1" vertex="1">
          <mxGeometry x="105" y="35" width="154" height="100" as="geometry" />
        </mxCell>
        <mxCell id="3foTuXjZa9yjILKBP0uG-4" value="&lt;font size=&quot;1&quot; face=&quot;Times New Roman&quot; style=&quot;&quot;&gt;&lt;b style=&quot;font-size: 20px;&quot;&gt;Заключение контракта&lt;/b&gt;&lt;/font&gt;" style="ellipse;whiteSpace=wrap;html=1;" parent="1" vertex="1">
          <mxGeometry x="-280" y="420" width="130" height="110" as="geometry" />
        </mxCell>
        <mxCell id="3foTuXjZa9yjILKBP0uG-5" value="&lt;font style=&quot;font-size: 25px;&quot; face=&quot;Times New Roman&quot;&gt;&lt;b&gt;Обслуживание&lt;/b&gt;&lt;/font&gt;" style="ellipse;whiteSpace=wrap;html=1;" parent="1" vertex="1">
          <mxGeometry x="630" y="470" width="190" height="140" as="geometry" />
        </mxCell>
        <mxCell id="qbAMwlXeR4gNUbQ7bPje-84" style="edgeStyle=none;curved=1;rounded=0;orthogonalLoop=1;jettySize=auto;html=1;exitX=0.5;exitY=1;exitDx=0;exitDy=0;fontSize=12;startSize=8;endSize=8;" edge="1" parent="1" source="3foTuXjZa9yjILKBP0uG-6" target="3foTuXjZa9yjILKBP0uG-18">
          <mxGeometry relative="1" as="geometry" />
        </mxCell>
        <mxCell id="qbAMwlXeR4gNUbQ7bPje-85" value="&lt;font face=&quot;Times New Roman&quot; style=&quot;font-size: 20px;&quot;&gt;цена продажи&lt;/font&gt;" style="edgeLabel;html=1;align=center;verticalAlign=middle;resizable=0;points=[];fontSize=16;" vertex="1" connectable="0" parent="qbAMwlXeR4gNUbQ7bPje-84">
          <mxGeometry x="-0.3539" y="2" relative="1" as="geometry">
            <mxPoint as="offset" />
          </mxGeometry>
        </mxCell>
        <mxCell id="qbAMwlXeR4gNUbQ7bPje-137" style="edgeStyle=none;curved=1;rounded=0;orthogonalLoop=1;jettySize=auto;html=1;exitX=1;exitY=0.5;exitDx=0;exitDy=0;entryX=0;entryY=0.5;entryDx=0;entryDy=0;fontSize=12;startSize=8;endSize=8;" edge="1" parent="1" source="3foTuXjZa9yjILKBP0uG-6" target="qbAMwlXeR4gNUbQ7bPje-127">
          <mxGeometry relative="1" as="geometry" />
        </mxCell>
        <mxCell id="3foTuXjZa9yjILKBP0uG-6" value="&lt;b style=&quot;border-color: var(--border-color); font-size: 16px;&quot;&gt;&lt;font style=&quot;border-color: var(--border-color); font-size: 20px;&quot; face=&quot;Times New Roman&quot;&gt;Оценка продукта&lt;/font&gt;&lt;/b&gt;" style="ellipse;whiteSpace=wrap;html=1;" parent="1" vertex="1">
          <mxGeometry x="132" y="290" width="110" height="100" as="geometry" />
        </mxCell>
        <mxCell id="3foTuXjZa9yjILKBP0uG-13" value="" style="rounded=0;whiteSpace=wrap;html=1;" parent="1" vertex="1">
          <mxGeometry x="650" y="50" width="160" height="60" as="geometry" />
        </mxCell>
        <mxCell id="qbAMwlXeR4gNUbQ7bPje-88" style="edgeStyle=none;curved=1;rounded=0;orthogonalLoop=1;jettySize=auto;html=1;fontSize=12;startSize=8;endSize=8;exitX=0.5;exitY=0;exitDx=0;exitDy=0;" edge="1" parent="1" source="3foTuXjZa9yjILKBP0uG-5" target="3foTuXjZa9yjILKBP0uG-14">
          <mxGeometry relative="1" as="geometry">
            <mxPoint x="740" y="313" as="sourcePoint" />
            <mxPoint x="740.8055559683821" y="542.5001486176238" as="targetPoint" />
          </mxGeometry>
        </mxCell>
        <mxCell id="qbAMwlXeR4gNUbQ7bPje-91" value="&lt;font size=&quot;1&quot; face=&quot;Times New Roman&quot; style=&quot;&quot;&gt;&lt;span style=&quot;font-size: 20px;&quot;&gt;Деньги&lt;/span&gt;&lt;/font&gt;" style="edgeLabel;html=1;align=center;verticalAlign=middle;resizable=0;points=[];fontSize=16;" vertex="1" connectable="0" parent="qbAMwlXeR4gNUbQ7bPje-88">
          <mxGeometry x="-0.2205" y="-4" relative="1" as="geometry">
            <mxPoint as="offset" />
          </mxGeometry>
        </mxCell>
        <mxCell id="3foTuXjZa9yjILKBP0uG-14" value="&lt;font face=&quot;Times New Roman&quot; style=&quot;font-size: 25px;&quot;&gt;&lt;b&gt;Бухгалтер&lt;/b&gt;&lt;/font&gt;" style="rounded=0;whiteSpace=wrap;html=1;" parent="1" vertex="1">
          <mxGeometry x="644" y="180" width="160" height="60" as="geometry" />
        </mxCell>
        <mxCell id="3foTuXjZa9yjILKBP0uG-15" value="&lt;font style=&quot;font-size: 25px;&quot; face=&quot;Times New Roman&quot;&gt;&lt;b&gt;Клиент&lt;/b&gt;&lt;/font&gt;" style="rounded=0;whiteSpace=wrap;html=1;" parent="1" vertex="1">
          <mxGeometry x="342.5" y="469.55" width="153" height="60.45" as="geometry" />
        </mxCell>
        <mxCell id="qbAMwlXeR4gNUbQ7bPje-76" style="edgeStyle=none;curved=1;rounded=0;orthogonalLoop=1;jettySize=auto;html=1;exitX=0.5;exitY=0;exitDx=0;exitDy=0;fontSize=12;startSize=8;endSize=8;" edge="1" parent="1" source="3foTuXjZa9yjILKBP0uG-16" target="3foTuXjZa9yjILKBP0uG-4">
          <mxGeometry relative="1" as="geometry" />
        </mxCell>
        <mxCell id="3foTuXjZa9yjILKBP0uG-16" value="&lt;b&gt;&lt;font style=&quot;font-size: 25px;&quot; face=&quot;Times New Roman&quot;&gt;Данные клиента&lt;/font&gt;&lt;/b&gt;" style="rounded=0;whiteSpace=wrap;html=1;" parent="1" vertex="1">
          <mxGeometry x="-291.5" y="590" width="153" height="60.45" as="geometry" />
        </mxCell>
        <mxCell id="qbAMwlXeR4gNUbQ7bPje-138" style="edgeStyle=none;curved=1;rounded=0;orthogonalLoop=1;jettySize=auto;html=1;exitX=0;exitY=0.5;exitDx=0;exitDy=0;entryX=1;entryY=0.5;entryDx=0;entryDy=0;fontSize=12;startSize=8;endSize=8;" edge="1" parent="1" source="3foTuXjZa9yjILKBP0uG-17" target="qbAMwlXeR4gNUbQ7bPje-124">
          <mxGeometry relative="1" as="geometry" />
        </mxCell>
        <mxCell id="3foTuXjZa9yjILKBP0uG-17" value="&lt;font style=&quot;font-size: 20px;&quot; face=&quot;Times New Roman&quot;&gt;&lt;b&gt;Фотографии&lt;/b&gt;&lt;/font&gt;" style="rounded=0;whiteSpace=wrap;html=1;" parent="1" vertex="1">
          <mxGeometry x="460" y="190" width="130.5" height="80" as="geometry" />
        </mxCell>
        <mxCell id="qbAMwlXeR4gNUbQ7bPje-73" style="edgeStyle=none;curved=1;rounded=0;orthogonalLoop=1;jettySize=auto;html=1;fontSize=12;startSize=8;endSize=8;" edge="1" parent="1" source="3foTuXjZa9yjILKBP0uG-18" target="3foTuXjZa9yjILKBP0uG-15">
          <mxGeometry relative="1" as="geometry" />
        </mxCell>
        <mxCell id="3foTuXjZa9yjILKBP0uG-18" value="&lt;b&gt;&lt;font style=&quot;font-size: 25px;&quot; face=&quot;Times New Roman&quot;&gt;Менеджер по продажам&lt;/font&gt;&lt;/b&gt;" style="rounded=0;whiteSpace=wrap;html=1;" parent="1" vertex="1">
          <mxGeometry x="105" y="470" width="173.5" height="60.45" as="geometry" />
        </mxCell>
        <mxCell id="qbAMwlXeR4gNUbQ7bPje-114" style="edgeStyle=none;curved=1;rounded=0;orthogonalLoop=1;jettySize=auto;html=1;exitX=0.5;exitY=1;exitDx=0;exitDy=0;entryX=0.5;entryY=0;entryDx=0;entryDy=0;fontSize=12;startSize=8;endSize=8;" edge="1" parent="1" source="3foTuXjZa9yjILKBP0uG-20" target="3foTuXjZa9yjILKBP0uG-6">
          <mxGeometry relative="1" as="geometry" />
        </mxCell>
        <mxCell id="3foTuXjZa9yjILKBP0uG-20" value="&lt;b style=&quot;border-color: var(--border-color); font-family: &amp;quot;Times New Roman&amp;quot;; font-size: 24px;&quot;&gt;Накладные&lt;br style=&quot;border-color: var(--border-color);&quot;&gt;расходов&lt;/b&gt;" style="shape=partialRectangle;whiteSpace=wrap;html=1;left=0;right=0;fillColor=none;" parent="1" vertex="1">
          <mxGeometry x="127" y="180" width="120" height="60" as="geometry" />
        </mxCell>
        <mxCell id="3foTuXjZa9yjILKBP0uG-24" value="&lt;font style=&quot;font-size: 18px;&quot; face=&quot;Times New Roman&quot;&gt;формула расчета&amp;nbsp;&lt;br&gt;нижней цены&lt;br&gt;продажи&lt;/font&gt;" style="text;html=1;align=center;verticalAlign=middle;resizable=0;points=[];autosize=1;strokeColor=none;fillColor=none;" parent="1" vertex="1">
          <mxGeometry x="-239" y="310" width="160" height="80" as="geometry" />
        </mxCell>
        <mxCell id="3foTuXjZa9yjILKBP0uG-25" value="" style="edgeStyle=none;orthogonalLoop=1;jettySize=auto;html=1;rounded=0;" parent="1" source="3foTuXjZa9yjILKBP0uG-24" target="3foTuXjZa9yjILKBP0uG-6" edge="1">
          <mxGeometry width="100" relative="1" as="geometry">
            <mxPoint x="270" y="350" as="sourcePoint" />
            <mxPoint x="370" y="350" as="targetPoint" />
            <Array as="points" />
          </mxGeometry>
        </mxCell>
        <mxCell id="3foTuXjZa9yjILKBP0uG-26" value="" style="endArrow=none;html=1;rounded=0;entryX=0.5;entryY=1;entryDx=0;entryDy=0;" parent="1" source="3foTuXjZa9yjILKBP0uG-24" target="3foTuXjZa9yjILKBP0uG-19" edge="1">
          <mxGeometry width="50" height="50" relative="1" as="geometry">
            <mxPoint x="420" y="560" as="sourcePoint" />
            <mxPoint x="470" y="510" as="targetPoint" />
            <Array as="points" />
          </mxGeometry>
        </mxCell>
        <mxCell id="qbAMwlXeR4gNUbQ7bPje-11" style="edgeStyle=none;curved=1;rounded=0;orthogonalLoop=1;jettySize=auto;html=1;exitX=0;exitY=0.5;exitDx=0;exitDy=0;fontSize=12;startSize=8;endSize=8;entryX=1;entryY=0.5;entryDx=0;entryDy=0;" edge="1" parent="1" source="qbAMwlXeR4gNUbQ7bPje-4" target="3foTuXjZa9yjILKBP0uG-3">
          <mxGeometry relative="1" as="geometry">
            <mxPoint x="500" y="79.53846153846143" as="targetPoint" />
          </mxGeometry>
        </mxCell>
        <mxCell id="qbAMwlXeR4gNUbQ7bPje-94" value="Договор на&lt;br&gt;&amp;nbsp;поставку" style="edgeLabel;html=1;align=center;verticalAlign=middle;resizable=0;points=[];fontSize=16;" vertex="1" connectable="0" parent="qbAMwlXeR4gNUbQ7bPje-11">
          <mxGeometry x="-0.0977" y="-3" relative="1" as="geometry">
            <mxPoint y="3" as="offset" />
          </mxGeometry>
        </mxCell>
        <mxCell id="qbAMwlXeR4gNUbQ7bPje-4" value="&lt;font style=&quot;font-size: 25px;&quot; face=&quot;Times New Roman&quot;&gt;&lt;b&gt;Поставщик&lt;/b&gt;&lt;/font&gt;" style="text;html=1;strokeColor=none;fillColor=none;align=center;verticalAlign=middle;whiteSpace=wrap;rounded=0;fontSize=16;" vertex="1" parent="1">
          <mxGeometry x="650" y="61.25" width="160" height="37.5" as="geometry" />
        </mxCell>
        <mxCell id="qbAMwlXeR4gNUbQ7bPje-5" value="" style="group" vertex="1" connectable="0" parent="1">
          <mxGeometry x="-250" y="55" width="181" height="60" as="geometry" />
        </mxCell>
        <mxCell id="qbAMwlXeR4gNUbQ7bPje-2" value="&lt;br&gt;&lt;font face=&quot;Times New Roman&quot;&gt;&lt;span style=&quot;font-size: 20px;&quot;&gt;&lt;b&gt;&lt;br&gt;&lt;/b&gt;&lt;/span&gt;&lt;/font&gt;" style="text;html=1;strokeColor=none;fillColor=none;align=center;verticalAlign=middle;whiteSpace=wrap;rounded=0;fontSize=16;" vertex="1" parent="qbAMwlXeR4gNUbQ7bPje-5">
          <mxGeometry x="15.46875" y="4.270833333333333" width="149.0625" height="42.70833333333333" as="geometry" />
        </mxCell>
        <mxCell id="3foTuXjZa9yjILKBP0uG-19" value="&lt;font style=&quot;font-size: 24px;&quot; face=&quot;Times New Roman&quot;&gt;&lt;b&gt;Администратор&lt;/b&gt;&lt;/font&gt;" style="rounded=0;whiteSpace=wrap;html=1;" parent="qbAMwlXeR4gNUbQ7bPje-5" vertex="1">
          <mxGeometry x="1" width="180" height="60" as="geometry" />
        </mxCell>
        <mxCell id="qbAMwlXeR4gNUbQ7bPje-9" style="edgeStyle=none;curved=1;rounded=0;orthogonalLoop=1;jettySize=auto;html=1;exitX=1;exitY=0.5;exitDx=0;exitDy=0;entryX=0;entryY=0.5;entryDx=0;entryDy=0;fontSize=12;startSize=8;endSize=8;" edge="1" parent="1" source="3foTuXjZa9yjILKBP0uG-19" target="3foTuXjZa9yjILKBP0uG-3">
          <mxGeometry relative="1" as="geometry">
            <mxPoint x="240" y="84.375" as="sourcePoint" />
          </mxGeometry>
        </mxCell>
        <mxCell id="qbAMwlXeR4gNUbQ7bPje-95" value="Деньги" style="edgeLabel;html=1;align=center;verticalAlign=middle;resizable=0;points=[];fontSize=16;" vertex="1" connectable="0" parent="qbAMwlXeR4gNUbQ7bPje-9">
          <mxGeometry x="-0.0411" y="5" relative="1" as="geometry">
            <mxPoint y="6" as="offset" />
          </mxGeometry>
        </mxCell>
        <mxCell id="qbAMwlXeR4gNUbQ7bPje-15" value="" style="shape=table;startSize=0;container=1;collapsible=0;childLayout=tableLayout;fontSize=16;" vertex="1" parent="1">
          <mxGeometry x="-90" y="740" width="890" height="600" as="geometry" />
        </mxCell>
        <mxCell id="qbAMwlXeR4gNUbQ7bPje-16" value="" style="shape=tableRow;horizontal=0;startSize=0;swimlaneHead=0;swimlaneBody=0;strokeColor=inherit;top=0;left=0;bottom=0;right=0;collapsible=0;dropTarget=0;fillColor=none;points=[[0,0.5],[1,0.5]];portConstraint=eastwest;fontSize=16;" vertex="1" parent="qbAMwlXeR4gNUbQ7bPje-15">
          <mxGeometry width="890" height="40" as="geometry" />
        </mxCell>
        <mxCell id="qbAMwlXeR4gNUbQ7bPje-17" value="Исполнитель" style="shape=partialRectangle;html=1;whiteSpace=wrap;connectable=0;strokeColor=inherit;overflow=hidden;fillColor=none;top=0;left=0;bottom=0;right=0;pointerEvents=1;fontSize=16;" vertex="1" parent="qbAMwlXeR4gNUbQ7bPje-16">
          <mxGeometry width="139" height="40" as="geometry">
            <mxRectangle width="139" height="40" as="alternateBounds" />
          </mxGeometry>
        </mxCell>
        <mxCell id="qbAMwlXeR4gNUbQ7bPje-18" value="Название бизнес-процесса" style="shape=partialRectangle;html=1;whiteSpace=wrap;connectable=0;strokeColor=inherit;overflow=hidden;fillColor=none;top=0;left=0;bottom=0;right=0;pointerEvents=1;fontSize=16;" vertex="1" parent="qbAMwlXeR4gNUbQ7bPje-16">
          <mxGeometry x="139" width="111" height="40" as="geometry">
            <mxRectangle width="111" height="40" as="alternateBounds" />
          </mxGeometry>
        </mxCell>
        <mxCell id="qbAMwlXeR4gNUbQ7bPje-19" value="Входы" style="shape=partialRectangle;html=1;whiteSpace=wrap;connectable=0;strokeColor=inherit;overflow=hidden;fillColor=none;top=0;left=0;bottom=0;right=0;pointerEvents=1;fontSize=16;" vertex="1" parent="qbAMwlXeR4gNUbQ7bPje-16">
          <mxGeometry x="250" width="150" height="40" as="geometry">
            <mxRectangle width="150" height="40" as="alternateBounds" />
          </mxGeometry>
        </mxCell>
        <mxCell id="qbAMwlXeR4gNUbQ7bPje-20" value="От кого" style="shape=partialRectangle;html=1;whiteSpace=wrap;connectable=0;strokeColor=inherit;overflow=hidden;fillColor=none;top=0;left=0;bottom=0;right=0;pointerEvents=1;fontSize=16;" vertex="1" parent="qbAMwlXeR4gNUbQ7bPje-16">
          <mxGeometry x="400" width="129" height="40" as="geometry">
            <mxRectangle width="129" height="40" as="alternateBounds" />
          </mxGeometry>
        </mxCell>
        <mxCell id="qbAMwlXeR4gNUbQ7bPje-21" value="Управление" style="shape=partialRectangle;html=1;whiteSpace=wrap;connectable=0;strokeColor=inherit;overflow=hidden;fillColor=none;top=0;left=0;bottom=0;right=0;pointerEvents=1;fontSize=16;" vertex="1" parent="qbAMwlXeR4gNUbQ7bPje-16">
          <mxGeometry x="529" width="100" height="40" as="geometry">
            <mxRectangle width="100" height="40" as="alternateBounds" />
          </mxGeometry>
        </mxCell>
        <mxCell id="qbAMwlXeR4gNUbQ7bPje-22" value="Выходы" style="shape=partialRectangle;html=1;whiteSpace=wrap;connectable=0;strokeColor=inherit;overflow=hidden;fillColor=none;top=0;left=0;bottom=0;right=0;pointerEvents=1;fontSize=16;" vertex="1" parent="qbAMwlXeR4gNUbQ7bPje-16">
          <mxGeometry x="629" width="121" height="40" as="geometry">
            <mxRectangle width="121" height="40" as="alternateBounds" />
          </mxGeometry>
        </mxCell>
        <mxCell id="qbAMwlXeR4gNUbQ7bPje-23" value="Кому" style="shape=partialRectangle;html=1;whiteSpace=wrap;connectable=0;strokeColor=inherit;overflow=hidden;fillColor=none;top=0;left=0;bottom=0;right=0;pointerEvents=1;fontSize=16;" vertex="1" parent="qbAMwlXeR4gNUbQ7bPje-16">
          <mxGeometry x="750" width="140" height="40" as="geometry">
            <mxRectangle width="140" height="40" as="alternateBounds" />
          </mxGeometry>
        </mxCell>
        <mxCell id="qbAMwlXeR4gNUbQ7bPje-24" value="" style="shape=tableRow;horizontal=0;startSize=0;swimlaneHead=0;swimlaneBody=0;strokeColor=inherit;top=0;left=0;bottom=0;right=0;collapsible=0;dropTarget=0;fillColor=none;points=[[0,0.5],[1,0.5]];portConstraint=eastwest;fontSize=16;" vertex="1" parent="qbAMwlXeR4gNUbQ7bPje-15">
          <mxGeometry y="40" width="890" height="70" as="geometry" />
        </mxCell>
        <mxCell id="qbAMwlXeR4gNUbQ7bPje-25" value="Фотограф" style="shape=partialRectangle;html=1;whiteSpace=wrap;connectable=0;strokeColor=inherit;overflow=hidden;fillColor=none;top=0;left=0;bottom=0;right=0;pointerEvents=1;fontSize=16;" vertex="1" parent="qbAMwlXeR4gNUbQ7bPje-24">
          <mxGeometry width="139" height="70" as="geometry">
            <mxRectangle width="139" height="70" as="alternateBounds" />
          </mxGeometry>
        </mxCell>
        <mxCell id="qbAMwlXeR4gNUbQ7bPje-26" value="Съемка портретов" style="shape=partialRectangle;html=1;whiteSpace=wrap;connectable=0;strokeColor=inherit;overflow=hidden;fillColor=none;top=0;left=0;bottom=0;right=0;pointerEvents=1;fontSize=16;" vertex="1" parent="qbAMwlXeR4gNUbQ7bPje-24">
          <mxGeometry x="139" width="111" height="70" as="geometry">
            <mxRectangle width="111" height="70" as="alternateBounds" />
          </mxGeometry>
        </mxCell>
        <mxCell id="qbAMwlXeR4gNUbQ7bPje-27" value="Фотоаппарат, свет, студия, клиент" style="shape=partialRectangle;html=1;whiteSpace=wrap;connectable=0;strokeColor=inherit;overflow=hidden;fillColor=none;top=0;left=0;bottom=0;right=0;pointerEvents=1;fontSize=16;" vertex="1" parent="qbAMwlXeR4gNUbQ7bPje-24">
          <mxGeometry x="250" width="150" height="70" as="geometry">
            <mxRectangle width="150" height="70" as="alternateBounds" />
          </mxGeometry>
        </mxCell>
        <mxCell id="qbAMwlXeR4gNUbQ7bPje-28" value="заказчик" style="shape=partialRectangle;html=1;whiteSpace=wrap;connectable=0;strokeColor=inherit;overflow=hidden;fillColor=none;top=0;left=0;bottom=0;right=0;pointerEvents=1;fontSize=16;" vertex="1" parent="qbAMwlXeR4gNUbQ7bPje-24">
          <mxGeometry x="400" width="129" height="70" as="geometry">
            <mxRectangle width="129" height="70" as="alternateBounds" />
          </mxGeometry>
        </mxCell>
        <mxCell id="qbAMwlXeR4gNUbQ7bPje-29" value="фотограф" style="shape=partialRectangle;html=1;whiteSpace=wrap;connectable=0;strokeColor=inherit;overflow=hidden;fillColor=none;top=0;left=0;bottom=0;right=0;pointerEvents=1;fontSize=16;" vertex="1" parent="qbAMwlXeR4gNUbQ7bPje-24">
          <mxGeometry x="529" width="100" height="70" as="geometry">
            <mxRectangle width="100" height="70" as="alternateBounds" />
          </mxGeometry>
        </mxCell>
        <mxCell id="qbAMwlXeR4gNUbQ7bPje-30" value="фотографии, клиент&amp;nbsp;" style="shape=partialRectangle;html=1;whiteSpace=wrap;connectable=0;strokeColor=inherit;overflow=hidden;fillColor=none;top=0;left=0;bottom=0;right=0;pointerEvents=1;fontSize=16;" vertex="1" parent="qbAMwlXeR4gNUbQ7bPje-24">
          <mxGeometry x="629" width="121" height="70" as="geometry">
            <mxRectangle width="121" height="70" as="alternateBounds" />
          </mxGeometry>
        </mxCell>
        <mxCell id="qbAMwlXeR4gNUbQ7bPje-31" value="клиент" style="shape=partialRectangle;html=1;whiteSpace=wrap;connectable=0;strokeColor=inherit;overflow=hidden;fillColor=none;top=0;left=0;bottom=0;right=0;pointerEvents=1;fontSize=16;" vertex="1" parent="qbAMwlXeR4gNUbQ7bPje-24">
          <mxGeometry x="750" width="140" height="70" as="geometry">
            <mxRectangle width="140" height="70" as="alternateBounds" />
          </mxGeometry>
        </mxCell>
        <mxCell id="qbAMwlXeR4gNUbQ7bPje-32" style="shape=tableRow;horizontal=0;startSize=0;swimlaneHead=0;swimlaneBody=0;strokeColor=inherit;top=0;left=0;bottom=0;right=0;collapsible=0;dropTarget=0;fillColor=none;points=[[0,0.5],[1,0.5]];portConstraint=eastwest;fontSize=16;" vertex="1" parent="qbAMwlXeR4gNUbQ7bPje-15">
          <mxGeometry y="110" width="890" height="70" as="geometry" />
        </mxCell>
        <mxCell id="qbAMwlXeR4gNUbQ7bPje-33" value="Ретушер" style="shape=partialRectangle;html=1;whiteSpace=wrap;connectable=0;strokeColor=inherit;overflow=hidden;fillColor=none;top=0;left=0;bottom=0;right=0;pointerEvents=1;fontSize=16;" vertex="1" parent="qbAMwlXeR4gNUbQ7bPje-32">
          <mxGeometry width="139" height="70" as="geometry">
            <mxRectangle width="139" height="70" as="alternateBounds" />
          </mxGeometry>
        </mxCell>
        <mxCell id="qbAMwlXeR4gNUbQ7bPje-34" value="Обработка фотографий" style="shape=partialRectangle;html=1;whiteSpace=wrap;connectable=0;strokeColor=inherit;overflow=hidden;fillColor=none;top=0;left=0;bottom=0;right=0;pointerEvents=1;fontSize=16;" vertex="1" parent="qbAMwlXeR4gNUbQ7bPje-32">
          <mxGeometry x="139" width="111" height="70" as="geometry">
            <mxRectangle width="111" height="70" as="alternateBounds" />
          </mxGeometry>
        </mxCell>
        <mxCell id="qbAMwlXeR4gNUbQ7bPje-35" value="Фотографии, компьютер, программы&amp;nbsp;&amp;nbsp;" style="shape=partialRectangle;html=1;whiteSpace=wrap;connectable=0;strokeColor=inherit;overflow=hidden;fillColor=none;top=0;left=0;bottom=0;right=0;pointerEvents=1;fontSize=16;" vertex="1" parent="qbAMwlXeR4gNUbQ7bPje-32">
          <mxGeometry x="250" width="150" height="70" as="geometry">
            <mxRectangle width="150" height="70" as="alternateBounds" />
          </mxGeometry>
        </mxCell>
        <mxCell id="qbAMwlXeR4gNUbQ7bPje-36" value="фотограф" style="shape=partialRectangle;html=1;whiteSpace=wrap;connectable=0;strokeColor=inherit;overflow=hidden;fillColor=none;top=0;left=0;bottom=0;right=0;pointerEvents=1;fontSize=16;" vertex="1" parent="qbAMwlXeR4gNUbQ7bPje-32">
          <mxGeometry x="400" width="129" height="70" as="geometry">
            <mxRectangle width="129" height="70" as="alternateBounds" />
          </mxGeometry>
        </mxCell>
        <mxCell id="qbAMwlXeR4gNUbQ7bPje-37" value="ретушер" style="shape=partialRectangle;html=1;whiteSpace=wrap;connectable=0;strokeColor=inherit;overflow=hidden;fillColor=none;top=0;left=0;bottom=0;right=0;pointerEvents=1;fontSize=16;" vertex="1" parent="qbAMwlXeR4gNUbQ7bPje-32">
          <mxGeometry x="529" width="100" height="70" as="geometry">
            <mxRectangle width="100" height="70" as="alternateBounds" />
          </mxGeometry>
        </mxCell>
        <mxCell id="qbAMwlXeR4gNUbQ7bPje-38" value="обработка фотографий, фотограф" style="shape=partialRectangle;html=1;whiteSpace=wrap;connectable=0;strokeColor=inherit;overflow=hidden;fillColor=none;top=0;left=0;bottom=0;right=0;pointerEvents=1;fontSize=16;" vertex="1" parent="qbAMwlXeR4gNUbQ7bPje-32">
          <mxGeometry x="629" width="121" height="70" as="geometry">
            <mxRectangle width="121" height="70" as="alternateBounds" />
          </mxGeometry>
        </mxCell>
        <mxCell id="qbAMwlXeR4gNUbQ7bPje-39" value="фотограф" style="shape=partialRectangle;html=1;whiteSpace=wrap;connectable=0;strokeColor=inherit;overflow=hidden;fillColor=none;top=0;left=0;bottom=0;right=0;pointerEvents=1;fontSize=16;" vertex="1" parent="qbAMwlXeR4gNUbQ7bPje-32">
          <mxGeometry x="750" width="140" height="70" as="geometry">
            <mxRectangle width="140" height="70" as="alternateBounds" />
          </mxGeometry>
        </mxCell>
        <mxCell id="qbAMwlXeR4gNUbQ7bPje-40" style="shape=tableRow;horizontal=0;startSize=0;swimlaneHead=0;swimlaneBody=0;strokeColor=inherit;top=0;left=0;bottom=0;right=0;collapsible=0;dropTarget=0;fillColor=none;points=[[0,0.5],[1,0.5]];portConstraint=eastwest;fontSize=16;" vertex="1" parent="qbAMwlXeR4gNUbQ7bPje-15">
          <mxGeometry y="180" width="890" height="70" as="geometry" />
        </mxCell>
        <mxCell id="qbAMwlXeR4gNUbQ7bPje-41" value="Менеджер по продажам" style="shape=partialRectangle;html=1;whiteSpace=wrap;connectable=0;strokeColor=inherit;overflow=hidden;fillColor=none;top=0;left=0;bottom=0;right=0;pointerEvents=1;fontSize=16;" vertex="1" parent="qbAMwlXeR4gNUbQ7bPje-40">
          <mxGeometry width="139" height="70" as="geometry">
            <mxRectangle width="139" height="70" as="alternateBounds" />
          </mxGeometry>
        </mxCell>
        <mxCell id="qbAMwlXeR4gNUbQ7bPje-42" value="Продажа услуг фотостудии" style="shape=partialRectangle;html=1;whiteSpace=wrap;connectable=0;strokeColor=inherit;overflow=hidden;fillColor=none;top=0;left=0;bottom=0;right=0;pointerEvents=1;fontSize=16;" vertex="1" parent="qbAMwlXeR4gNUbQ7bPje-40">
          <mxGeometry x="139" width="111" height="70" as="geometry">
            <mxRectangle width="111" height="70" as="alternateBounds" />
          </mxGeometry>
        </mxCell>
        <mxCell id="qbAMwlXeR4gNUbQ7bPje-43" value="Каталог услуг, клиенты, контакт. информация" style="shape=partialRectangle;html=1;whiteSpace=wrap;connectable=0;strokeColor=inherit;overflow=hidden;fillColor=none;top=0;left=0;bottom=0;right=0;pointerEvents=1;fontSize=16;" vertex="1" parent="qbAMwlXeR4gNUbQ7bPje-40">
          <mxGeometry x="250" width="150" height="70" as="geometry">
            <mxRectangle width="150" height="70" as="alternateBounds" />
          </mxGeometry>
        </mxCell>
        <mxCell id="qbAMwlXeR4gNUbQ7bPje-44" value="фотограф, ретушер" style="shape=partialRectangle;html=1;whiteSpace=wrap;connectable=0;strokeColor=inherit;overflow=hidden;fillColor=none;top=0;left=0;bottom=0;right=0;pointerEvents=1;fontSize=16;" vertex="1" parent="qbAMwlXeR4gNUbQ7bPje-40">
          <mxGeometry x="400" width="129" height="70" as="geometry">
            <mxRectangle width="129" height="70" as="alternateBounds" />
          </mxGeometry>
        </mxCell>
        <mxCell id="qbAMwlXeR4gNUbQ7bPje-45" value="менеджер по продажам" style="shape=partialRectangle;html=1;whiteSpace=wrap;connectable=0;strokeColor=inherit;overflow=hidden;fillColor=none;top=0;left=0;bottom=0;right=0;pointerEvents=1;fontSize=16;" vertex="1" parent="qbAMwlXeR4gNUbQ7bPje-40">
          <mxGeometry x="529" width="100" height="70" as="geometry">
            <mxRectangle width="100" height="70" as="alternateBounds" />
          </mxGeometry>
        </mxCell>
        <mxCell id="qbAMwlXeR4gNUbQ7bPje-46" value="Заказы на услуги, клиенты" style="shape=partialRectangle;html=1;whiteSpace=wrap;connectable=0;strokeColor=inherit;overflow=hidden;fillColor=none;top=0;left=0;bottom=0;right=0;pointerEvents=1;fontSize=16;" vertex="1" parent="qbAMwlXeR4gNUbQ7bPje-40">
          <mxGeometry x="629" width="121" height="70" as="geometry">
            <mxRectangle width="121" height="70" as="alternateBounds" />
          </mxGeometry>
        </mxCell>
        <mxCell id="qbAMwlXeR4gNUbQ7bPje-47" value="админ." style="shape=partialRectangle;html=1;whiteSpace=wrap;connectable=0;strokeColor=inherit;overflow=hidden;fillColor=none;top=0;left=0;bottom=0;right=0;pointerEvents=1;fontSize=16;" vertex="1" parent="qbAMwlXeR4gNUbQ7bPje-40">
          <mxGeometry x="750" width="140" height="70" as="geometry">
            <mxRectangle width="140" height="70" as="alternateBounds" />
          </mxGeometry>
        </mxCell>
        <mxCell id="qbAMwlXeR4gNUbQ7bPje-48" style="shape=tableRow;horizontal=0;startSize=0;swimlaneHead=0;swimlaneBody=0;strokeColor=inherit;top=0;left=0;bottom=0;right=0;collapsible=0;dropTarget=0;fillColor=none;points=[[0,0.5],[1,0.5]];portConstraint=eastwest;fontSize=16;" vertex="1" parent="qbAMwlXeR4gNUbQ7bPje-15">
          <mxGeometry y="250" width="890" height="80" as="geometry" />
        </mxCell>
        <mxCell id="qbAMwlXeR4gNUbQ7bPje-49" value="Администратор" style="shape=partialRectangle;html=1;whiteSpace=wrap;connectable=0;strokeColor=inherit;overflow=hidden;fillColor=none;top=0;left=0;bottom=0;right=0;pointerEvents=1;fontSize=16;" vertex="1" parent="qbAMwlXeR4gNUbQ7bPje-48">
          <mxGeometry width="139" height="80" as="geometry">
            <mxRectangle width="139" height="80" as="alternateBounds" />
          </mxGeometry>
        </mxCell>
        <mxCell id="qbAMwlXeR4gNUbQ7bPje-50" value="Управление фотостудией" style="shape=partialRectangle;html=1;whiteSpace=wrap;connectable=0;strokeColor=inherit;overflow=hidden;fillColor=none;top=0;left=0;bottom=0;right=0;pointerEvents=1;fontSize=16;" vertex="1" parent="qbAMwlXeR4gNUbQ7bPje-48">
          <mxGeometry x="139" width="111" height="80" as="geometry">
            <mxRectangle width="111" height="80" as="alternateBounds" />
          </mxGeometry>
        </mxCell>
        <mxCell id="qbAMwlXeR4gNUbQ7bPje-51" value="Каталог услуг, расписание, клиенты, финансы" style="shape=partialRectangle;html=1;whiteSpace=wrap;connectable=0;strokeColor=inherit;overflow=hidden;fillColor=none;top=0;left=0;bottom=0;right=0;pointerEvents=1;fontSize=16;" vertex="1" parent="qbAMwlXeR4gNUbQ7bPje-48">
          <mxGeometry x="250" width="150" height="80" as="geometry">
            <mxRectangle width="150" height="80" as="alternateBounds" />
          </mxGeometry>
        </mxCell>
        <mxCell id="qbAMwlXeR4gNUbQ7bPje-52" value="Менеджер по продажам, фотограф, ретушер" style="shape=partialRectangle;html=1;whiteSpace=wrap;connectable=0;strokeColor=inherit;overflow=hidden;fillColor=none;top=0;left=0;bottom=0;right=0;pointerEvents=1;fontSize=16;" vertex="1" parent="qbAMwlXeR4gNUbQ7bPje-48">
          <mxGeometry x="400" width="129" height="80" as="geometry">
            <mxRectangle width="129" height="80" as="alternateBounds" />
          </mxGeometry>
        </mxCell>
        <mxCell id="qbAMwlXeR4gNUbQ7bPje-53" value="админ." style="shape=partialRectangle;html=1;whiteSpace=wrap;connectable=0;strokeColor=inherit;overflow=hidden;fillColor=none;top=0;left=0;bottom=0;right=0;pointerEvents=1;fontSize=16;" vertex="1" parent="qbAMwlXeR4gNUbQ7bPje-48">
          <mxGeometry x="529" width="100" height="80" as="geometry">
            <mxRectangle width="100" height="80" as="alternateBounds" />
          </mxGeometry>
        </mxCell>
        <mxCell id="qbAMwlXeR4gNUbQ7bPje-54" value="управление работой студии, клиенты" style="shape=partialRectangle;html=1;whiteSpace=wrap;connectable=0;strokeColor=inherit;overflow=hidden;fillColor=none;top=0;left=0;bottom=0;right=0;pointerEvents=1;fontSize=16;" vertex="1" parent="qbAMwlXeR4gNUbQ7bPje-48">
          <mxGeometry x="629" width="121" height="80" as="geometry">
            <mxRectangle width="121" height="80" as="alternateBounds" />
          </mxGeometry>
        </mxCell>
        <mxCell id="qbAMwlXeR4gNUbQ7bPje-55" value="фотостудия" style="shape=partialRectangle;html=1;whiteSpace=wrap;connectable=0;strokeColor=inherit;overflow=hidden;fillColor=none;top=0;left=0;bottom=0;right=0;pointerEvents=1;fontSize=16;" vertex="1" parent="qbAMwlXeR4gNUbQ7bPje-48">
          <mxGeometry x="750" width="140" height="80" as="geometry">
            <mxRectangle width="140" height="80" as="alternateBounds" />
          </mxGeometry>
        </mxCell>
        <mxCell id="qbAMwlXeR4gNUbQ7bPje-57" style="shape=tableRow;horizontal=0;startSize=0;swimlaneHead=0;swimlaneBody=0;strokeColor=inherit;top=0;left=0;bottom=0;right=0;collapsible=0;dropTarget=0;fillColor=none;points=[[0,0.5],[1,0.5]];portConstraint=eastwest;fontSize=16;" vertex="1" parent="qbAMwlXeR4gNUbQ7bPje-15">
          <mxGeometry y="330" width="890" height="80" as="geometry" />
        </mxCell>
        <mxCell id="qbAMwlXeR4gNUbQ7bPje-58" value="Поставщик" style="shape=partialRectangle;html=1;whiteSpace=wrap;connectable=0;strokeColor=inherit;overflow=hidden;fillColor=none;top=0;left=0;bottom=0;right=0;pointerEvents=1;fontSize=16;" vertex="1" parent="qbAMwlXeR4gNUbQ7bPje-57">
          <mxGeometry width="139" height="80" as="geometry">
            <mxRectangle width="139" height="80" as="alternateBounds" />
          </mxGeometry>
        </mxCell>
        <mxCell id="qbAMwlXeR4gNUbQ7bPje-59" value="Поставка материалов" style="shape=partialRectangle;html=1;whiteSpace=wrap;connectable=0;strokeColor=inherit;overflow=hidden;fillColor=none;top=0;left=0;bottom=0;right=0;pointerEvents=1;fontSize=16;" vertex="1" parent="qbAMwlXeR4gNUbQ7bPje-57">
          <mxGeometry x="139" width="111" height="80" as="geometry">
            <mxRectangle width="111" height="80" as="alternateBounds" />
          </mxGeometry>
        </mxCell>
        <mxCell id="qbAMwlXeR4gNUbQ7bPje-60" value="Заказы на поставки" style="shape=partialRectangle;html=1;whiteSpace=wrap;connectable=0;strokeColor=inherit;overflow=hidden;fillColor=none;top=0;left=0;bottom=0;right=0;pointerEvents=1;fontSize=16;" vertex="1" parent="qbAMwlXeR4gNUbQ7bPje-57">
          <mxGeometry x="250" width="150" height="80" as="geometry">
            <mxRectangle width="150" height="80" as="alternateBounds" />
          </mxGeometry>
        </mxCell>
        <mxCell id="qbAMwlXeR4gNUbQ7bPje-61" value="Администратор" style="shape=partialRectangle;html=1;whiteSpace=wrap;connectable=0;strokeColor=inherit;overflow=hidden;fillColor=none;top=0;left=0;bottom=0;right=0;pointerEvents=1;fontSize=16;" vertex="1" parent="qbAMwlXeR4gNUbQ7bPje-57">
          <mxGeometry x="400" width="129" height="80" as="geometry">
            <mxRectangle width="129" height="80" as="alternateBounds" />
          </mxGeometry>
        </mxCell>
        <mxCell id="qbAMwlXeR4gNUbQ7bPje-62" value="Поставщик" style="shape=partialRectangle;html=1;whiteSpace=wrap;connectable=0;strokeColor=inherit;overflow=hidden;fillColor=none;top=0;left=0;bottom=0;right=0;pointerEvents=1;fontSize=16;" vertex="1" parent="qbAMwlXeR4gNUbQ7bPje-57">
          <mxGeometry x="529" width="100" height="80" as="geometry">
            <mxRectangle width="100" height="80" as="alternateBounds" />
          </mxGeometry>
        </mxCell>
        <mxCell id="qbAMwlXeR4gNUbQ7bPje-63" value="материалы,&lt;br&gt;Фотостудия" style="shape=partialRectangle;html=1;whiteSpace=wrap;connectable=0;strokeColor=inherit;overflow=hidden;fillColor=none;top=0;left=0;bottom=0;right=0;pointerEvents=1;fontSize=16;" vertex="1" parent="qbAMwlXeR4gNUbQ7bPje-57">
          <mxGeometry x="629" width="121" height="80" as="geometry">
            <mxRectangle width="121" height="80" as="alternateBounds" />
          </mxGeometry>
        </mxCell>
        <mxCell id="qbAMwlXeR4gNUbQ7bPje-64" value="фотостудия" style="shape=partialRectangle;html=1;whiteSpace=wrap;connectable=0;strokeColor=inherit;overflow=hidden;fillColor=none;top=0;left=0;bottom=0;right=0;pointerEvents=1;fontSize=16;" vertex="1" parent="qbAMwlXeR4gNUbQ7bPje-57">
          <mxGeometry x="750" width="140" height="80" as="geometry">
            <mxRectangle width="140" height="80" as="alternateBounds" />
          </mxGeometry>
        </mxCell>
        <mxCell id="qbAMwlXeR4gNUbQ7bPje-97" style="shape=tableRow;horizontal=0;startSize=0;swimlaneHead=0;swimlaneBody=0;strokeColor=inherit;top=0;left=0;bottom=0;right=0;collapsible=0;dropTarget=0;fillColor=none;points=[[0,0.5],[1,0.5]];portConstraint=eastwest;fontSize=16;" vertex="1" parent="qbAMwlXeR4gNUbQ7bPje-15">
          <mxGeometry y="410" width="890" height="190" as="geometry" />
        </mxCell>
        <mxCell id="qbAMwlXeR4gNUbQ7bPje-98" value="Бухгалтер" style="shape=partialRectangle;html=1;whiteSpace=wrap;connectable=0;strokeColor=inherit;overflow=hidden;fillColor=none;top=0;left=0;bottom=0;right=0;pointerEvents=1;fontSize=16;" vertex="1" parent="qbAMwlXeR4gNUbQ7bPje-97">
          <mxGeometry width="139" height="190" as="geometry">
            <mxRectangle width="139" height="190" as="alternateBounds" />
          </mxGeometry>
        </mxCell>
        <mxCell id="qbAMwlXeR4gNUbQ7bPje-99" value=" Ведение бухгалтерского учета" style="shape=partialRectangle;html=1;whiteSpace=wrap;connectable=0;strokeColor=inherit;overflow=hidden;fillColor=none;top=0;left=0;bottom=0;right=0;pointerEvents=1;fontSize=16;" vertex="1" parent="qbAMwlXeR4gNUbQ7bPje-97">
          <mxGeometry x="139" width="111" height="190" as="geometry">
            <mxRectangle width="111" height="190" as="alternateBounds" />
          </mxGeometry>
        </mxCell>
        <mxCell id="qbAMwlXeR4gNUbQ7bPje-100" value="Документы по учету хозяйственных операций, документы по учету заработной платы, документы по учету налогов и сборов" style="shape=partialRectangle;html=1;whiteSpace=wrap;connectable=0;strokeColor=inherit;overflow=hidden;fillColor=none;top=0;left=0;bottom=0;right=0;pointerEvents=1;fontSize=16;" vertex="1" parent="qbAMwlXeR4gNUbQ7bPje-97">
          <mxGeometry x="250" width="150" height="190" as="geometry">
            <mxRectangle width="150" height="190" as="alternateBounds" />
          </mxGeometry>
        </mxCell>
        <mxCell id="qbAMwlXeR4gNUbQ7bPje-101" value="Администратор" style="shape=partialRectangle;html=1;whiteSpace=wrap;connectable=0;strokeColor=inherit;overflow=hidden;fillColor=none;top=0;left=0;bottom=0;right=0;pointerEvents=1;fontSize=16;" vertex="1" parent="qbAMwlXeR4gNUbQ7bPje-97">
          <mxGeometry x="400" width="129" height="190" as="geometry">
            <mxRectangle width="129" height="190" as="alternateBounds" />
          </mxGeometry>
        </mxCell>
        <mxCell id="qbAMwlXeR4gNUbQ7bPje-102" value="Бухгалтер" style="shape=partialRectangle;html=1;whiteSpace=wrap;connectable=0;strokeColor=inherit;overflow=hidden;fillColor=none;top=0;left=0;bottom=0;right=0;pointerEvents=1;fontSize=16;" vertex="1" parent="qbAMwlXeR4gNUbQ7bPje-97">
          <mxGeometry x="529" width="100" height="190" as="geometry">
            <mxRectangle width="100" height="190" as="alternateBounds" />
          </mxGeometry>
        </mxCell>
        <mxCell id="qbAMwlXeR4gNUbQ7bPje-103" value=" Бухгалтерские отчеты, налоговые декларации, отчеты для государственных органов" style="shape=partialRectangle;html=1;whiteSpace=wrap;connectable=0;strokeColor=inherit;overflow=hidden;fillColor=none;top=0;left=0;bottom=0;right=0;pointerEvents=1;fontSize=16;" vertex="1" parent="qbAMwlXeR4gNUbQ7bPje-97">
          <mxGeometry x="629" width="121" height="190" as="geometry">
            <mxRectangle width="121" height="190" as="alternateBounds" />
          </mxGeometry>
        </mxCell>
        <mxCell id="qbAMwlXeR4gNUbQ7bPje-104" value="Руководитель Фотостудии, налоговые органы, государственные органы" style="shape=partialRectangle;html=1;whiteSpace=wrap;connectable=0;strokeColor=inherit;overflow=hidden;fillColor=none;top=0;left=0;bottom=0;right=0;pointerEvents=1;fontSize=16;" vertex="1" parent="qbAMwlXeR4gNUbQ7bPje-97">
          <mxGeometry x="750" width="140" height="190" as="geometry">
            <mxRectangle width="140" height="190" as="alternateBounds" />
          </mxGeometry>
        </mxCell>
        <mxCell id="qbAMwlXeR4gNUbQ7bPje-68" value="" style="edgeStyle=elbowEdgeStyle;elbow=vertical;endArrow=classic;html=1;curved=0;rounded=0;endSize=8;startSize=8;fontSize=12;exitX=0;exitY=0.5;exitDx=0;exitDy=0;" edge="1" parent="1" source="3foTuXjZa9yjILKBP0uG-19" target="3foTuXjZa9yjILKBP0uG-4">
          <mxGeometry width="50" height="50" relative="1" as="geometry">
            <mxPoint x="-291.50000000000006" y="120.00000000000001" as="sourcePoint" />
            <mxPoint x="-276.5800000000002" y="420.01999999999975" as="targetPoint" />
            <Array as="points">
              <mxPoint x="-340" y="280" />
            </Array>
          </mxGeometry>
        </mxCell>
        <mxCell id="qbAMwlXeR4gNUbQ7bPje-69" value="&lt;font style=&quot;font-size: 20px;&quot; face=&quot;Times New Roman&quot;&gt;Инфо &lt;br&gt;о&amp;nbsp;фото и цене&lt;/font&gt;" style="edgeLabel;html=1;align=center;verticalAlign=middle;resizable=0;points=[];fontSize=16;" vertex="1" connectable="0" parent="qbAMwlXeR4gNUbQ7bPje-68">
          <mxGeometry x="-0.1011" y="3" relative="1" as="geometry">
            <mxPoint x="-4" y="-45" as="offset" />
          </mxGeometry>
        </mxCell>
        <mxCell id="qbAMwlXeR4gNUbQ7bPje-71" value="" style="endArrow=classic;html=1;rounded=0;fontSize=12;startSize=8;endSize=8;curved=1;entryX=0;entryY=0.75;entryDx=0;entryDy=0;exitX=1;exitY=1;exitDx=0;exitDy=0;" edge="1" parent="1" source="3foTuXjZa9yjILKBP0uG-4" target="3foTuXjZa9yjILKBP0uG-18">
          <mxGeometry width="50" height="50" relative="1" as="geometry">
            <mxPoint x="265" y="490" as="sourcePoint" />
            <mxPoint x="315" y="440" as="targetPoint" />
          </mxGeometry>
        </mxCell>
        <mxCell id="qbAMwlXeR4gNUbQ7bPje-72" value="&lt;font style=&quot;font-size: 18px;&quot; face=&quot;Times New Roman&quot;&gt;контракт&lt;/font&gt;" style="edgeLabel;html=1;align=center;verticalAlign=middle;resizable=0;points=[];fontSize=16;" vertex="1" connectable="0" parent="qbAMwlXeR4gNUbQ7bPje-71">
          <mxGeometry x="-0.1974" y="-4" relative="1" as="geometry">
            <mxPoint y="12" as="offset" />
          </mxGeometry>
        </mxCell>
        <mxCell id="qbAMwlXeR4gNUbQ7bPje-78" value="" style="edgeStyle=elbowEdgeStyle;elbow=vertical;endArrow=classic;html=1;curved=0;rounded=0;endSize=8;startSize=8;fontSize=12;exitX=0.166;exitY=1.066;exitDx=0;exitDy=0;exitPerimeter=0;entryX=1;entryY=0.5;entryDx=0;entryDy=0;" edge="1" parent="1" source="3foTuXjZa9yjILKBP0uG-15" target="3foTuXjZa9yjILKBP0uG-16">
          <mxGeometry width="50" height="50" relative="1" as="geometry">
            <mxPoint x="369.79999999999995" y="590.99405" as="sourcePoint" />
            <mxPoint x="130" y="590.45" as="targetPoint" />
            <Array as="points">
              <mxPoint x="260" y="620" />
            </Array>
          </mxGeometry>
        </mxCell>
        <mxCell id="qbAMwlXeR4gNUbQ7bPje-80" value="" style="edgeStyle=elbowEdgeStyle;elbow=vertical;endArrow=classic;html=1;curved=0;rounded=0;endSize=8;startSize=8;fontSize=12;exitX=0.75;exitY=1;exitDx=0;exitDy=0;entryX=0;entryY=1;entryDx=0;entryDy=0;" edge="1" parent="1" source="3foTuXjZa9yjILKBP0uG-15" target="3foTuXjZa9yjILKBP0uG-5">
          <mxGeometry width="50" height="50" relative="1" as="geometry">
            <mxPoint x="467.99999999999994" y="591.4440500000001" as="sourcePoint" />
            <mxPoint x="293.2" y="590.45" as="targetPoint" />
            <Array as="points">
              <mxPoint x="358.2" y="620.45" />
            </Array>
          </mxGeometry>
        </mxCell>
        <mxCell id="qbAMwlXeR4gNUbQ7bPje-81" value="&lt;font style=&quot;font-size: 20px;&quot; face=&quot;Times New Roman&quot;&gt;запрос&lt;/font&gt;" style="edgeLabel;html=1;align=center;verticalAlign=middle;resizable=0;points=[];fontSize=16;" vertex="1" connectable="0" parent="qbAMwlXeR4gNUbQ7bPje-80">
          <mxGeometry x="-0.113" y="-4" relative="1" as="geometry">
            <mxPoint as="offset" />
          </mxGeometry>
        </mxCell>
        <mxCell id="qbAMwlXeR4gNUbQ7bPje-82" value="" style="edgeStyle=elbowEdgeStyle;elbow=vertical;endArrow=classic;html=1;curved=0;rounded=0;endSize=8;startSize=8;fontSize=12;exitX=0.5;exitY=1;exitDx=0;exitDy=0;entryX=0.5;entryY=1;entryDx=0;entryDy=0;" edge="1" parent="1" source="3foTuXjZa9yjILKBP0uG-5" target="3foTuXjZa9yjILKBP0uG-15">
          <mxGeometry width="50" height="50" relative="1" as="geometry">
            <mxPoint x="703.5" y="607.47405" as="sourcePoint" />
            <mxPoint x="406.00899999999996" y="584.9956" as="targetPoint" />
            <Array as="points">
              <mxPoint x="558.7" y="656.48" />
            </Array>
          </mxGeometry>
        </mxCell>
        <mxCell id="qbAMwlXeR4gNUbQ7bPje-83" value="&lt;font size=&quot;1&quot; style=&quot;&quot; face=&quot;Times New Roman&quot;&gt;&lt;span style=&quot;font-size: 20px;&quot;&gt;фотография&lt;/span&gt;&lt;/font&gt;" style="edgeLabel;html=1;align=center;verticalAlign=middle;resizable=0;points=[];fontSize=16;" vertex="1" connectable="0" parent="qbAMwlXeR4gNUbQ7bPje-82">
          <mxGeometry x="-0.2431" y="1" relative="1" as="geometry">
            <mxPoint x="-65" as="offset" />
          </mxGeometry>
        </mxCell>
        <mxCell id="qbAMwlXeR4gNUbQ7bPje-87" value="" style="edgeStyle=elbowEdgeStyle;elbow=horizontal;endArrow=classic;html=1;curved=0;rounded=0;endSize=8;startSize=8;fontSize=12;entryX=0;entryY=0.5;entryDx=0;entryDy=0;" edge="1" parent="1" source="qbAMwlXeR4gNUbQ7bPje-127">
          <mxGeometry width="50" height="50" relative="1" as="geometry">
            <mxPoint x="527" y="329" as="sourcePoint" />
            <mxPoint x="626.9999999999995" y="549" as="targetPoint" />
          </mxGeometry>
        </mxCell>
        <mxCell id="qbAMwlXeR4gNUbQ7bPje-96" value="" style="edgeStyle=elbowEdgeStyle;elbow=vertical;endArrow=classic;html=1;curved=0;rounded=0;endSize=8;startSize=8;fontSize=12;entryX=0.569;entryY=-0.031;entryDx=0;entryDy=0;entryPerimeter=0;exitX=1.012;exitY=0.633;exitDx=0;exitDy=0;exitPerimeter=0;" edge="1" parent="1" source="3foTuXjZa9yjILKBP0uG-3" target="3foTuXjZa9yjILKBP0uG-17">
          <mxGeometry width="50" height="50" relative="1" as="geometry">
            <mxPoint x="490" y="102.49999999999977" as="sourcePoint" />
            <mxPoint x="516" y="120" as="targetPoint" />
          </mxGeometry>
        </mxCell>
        <mxCell id="qbAMwlXeR4gNUbQ7bPje-107" style="edgeStyle=none;curved=1;rounded=0;orthogonalLoop=1;jettySize=auto;html=1;exitX=1;exitY=0;exitDx=0;exitDy=0;fontSize=12;startSize=8;endSize=8;" edge="1" parent="1" source="3foTuXjZa9yjILKBP0uG-6" target="3foTuXjZa9yjILKBP0uG-6">
          <mxGeometry relative="1" as="geometry" />
        </mxCell>
        <mxCell id="qbAMwlXeR4gNUbQ7bPje-116" style="edgeStyle=none;curved=1;rounded=0;orthogonalLoop=1;jettySize=auto;html=1;exitX=0.5;exitY=1;exitDx=0;exitDy=0;fontSize=12;startSize=8;endSize=8;" edge="1" parent="1" source="3foTuXjZa9yjILKBP0uG-3" target="3foTuXjZa9yjILKBP0uG-20">
          <mxGeometry relative="1" as="geometry" />
        </mxCell>
        <mxCell id="qbAMwlXeR4gNUbQ7bPje-122" value="&lt;font face=&quot;Times New Roman&quot; style=&quot;font-size: 25px;&quot;&gt;&lt;b&gt;Фотограф&lt;br&gt;&lt;/b&gt;&lt;/font&gt;" style="rounded=0;whiteSpace=wrap;html=1;" vertex="1" parent="1">
          <mxGeometry x="310" y="120" width="160" height="60" as="geometry" />
        </mxCell>
        <mxCell id="qbAMwlXeR4gNUbQ7bPje-134" style="edgeStyle=none;curved=1;rounded=0;orthogonalLoop=1;jettySize=auto;html=1;fontSize=12;startSize=8;endSize=8;" edge="1" parent="1" source="qbAMwlXeR4gNUbQ7bPje-124" target="qbAMwlXeR4gNUbQ7bPje-127">
          <mxGeometry relative="1" as="geometry" />
        </mxCell>
        <mxCell id="qbAMwlXeR4gNUbQ7bPje-124" value="&lt;font face=&quot;Times New Roman&quot; style=&quot;font-size: 25px;&quot;&gt;&lt;b&gt;Ретушер&lt;br&gt;&lt;/b&gt;&lt;/font&gt;" style="rounded=0;whiteSpace=wrap;html=1;" vertex="1" parent="1">
          <mxGeometry x="278.5" y="200" width="160" height="60" as="geometry" />
        </mxCell>
        <mxCell id="qbAMwlXeR4gNUbQ7bPje-127" value="&lt;b style=&quot;border-color: var(--border-color); font-size: 16px;&quot;&gt;&lt;font style=&quot;border-color: var(--border-color); font-size: 20px;&quot; face=&quot;Times New Roman&quot;&gt;Обработка фотографии&lt;/font&gt;&lt;/b&gt;" style="ellipse;whiteSpace=wrap;html=1;" vertex="1" parent="1">
          <mxGeometry x="293" y="281" width="128" height="115" as="geometry" />
        </mxCell>
      </root>
    </mxGraphModel>
  </diagram>
</mxfile>
